<svg xmlns="http://www.w3.org/2000/svg" viewBox="0 0 64 64" id="team-connection"><g data-name="Human Resource-Team-Collaborate-Network-Business"><path fill="#ffc477" d="M35 48v3l-2 1h-2l-2-1v-3h6z"></path><path fill="#ffb655" d="M40 39h-2v4h2a2 2 0 0 0 0-4zm-16 0h2v4h-2a2 2 0 0 1 0-4z"></path><path fill="#3d9ae2" d="m30 54 .82.82L29 61h-9v-2.1a6 6 0 0 1 3.56-5.48l2.74-1.22.7 2.8zm14 4.9V61h-9l-1.82-6.18L34 54l3 1 .7-2.8 2.74 1.22A6 6 0 0 1 44 58.9z"></path><path fill="#1e81ce" d="m31 52-1 2-3 1-.7-2.8L29 51l2 1z"></path><path fill="#ff5023" d="m34 54-.82.82L32 56l-1.18-1.18L30 54l1-2h2l1 2z"></path><path fill="#ff5023" d="M33.18 54.82 35 61h-6l1.82-6.18L32 56l1.18-1.18z"></path><path fill="#1e81ce" d="M37.7 52.2 37 55l-3-1-1-2 2-1 2.7 1.2z"></path><path fill="#ffb655" d="M35 48v2.32a6.958 6.958 0 0 1-6 0V48Z"></path><path fill="#ffc477" d="M38.34 38a3.014 3.014 0 0 1-2.91-2.27L35 34a4 4 0 0 1-4 4h-6v4a7 7 0 0 0 14 0v-4Z"></path><path fill="#57565c" d="M39 36v2h-.66a3.014 3.014 0 0 1-2.91-2.27L35 34a4 4 0 0 1-4 4h-6v-2a7 7 0 1 1 14 0zM7 35v-2a3 3 0 0 1 6 0v2l-2-2-1.41 1.41a2.006 2.006 0 0 1-1.42.59z"></path><path fill="#ff9811" d="M16 42.28V44H4v-1.72a2 2 0 0 1 1.16-1.82l3.69-1.69a2.99 2.99 0 0 0 2.3 0l3.69 1.69A2 2 0 0 1 16 42.28Z"></path><path fill="#ffc477" d="M13 35v1a2.993 2.993 0 0 1-5 2.23 1.2 1.2 0 0 1-.12-.11A2.993 2.993 0 0 1 7 36v-1h1.17a2.006 2.006 0 0 0 1.42-.59L11 33Z"></path><path fill="#ff9811" d="M60 42.28V44H48v-1.72a2 2 0 0 1 1.16-1.82l3.69-1.69a2.99 2.99 0 0 0 2.3 0l3.69 1.69A2 2 0 0 1 60 42.28Z"></path><path fill="#57565c" d="M54 30a3 3 0 0 1 3 3v2l-2-2-1.41 1.41a2.006 2.006 0 0 1-1.42.59H51v-2a3 3 0 0 1 3-3Z"></path><path fill="#ffc477" d="M57 35v1a2.993 2.993 0 0 1-5 2.23 1.2 1.2 0 0 1-.12-.11A2.993 2.993 0 0 1 51 36v-1h1.17a2.006 2.006 0 0 0 1.42-.59L55 33Z"></path><path fill="#00ccb3" d="M61 17.28V19H49v-1.72a2 2 0 0 1 1.16-1.82l3.69-1.69a2.99 2.99 0 0 0 2.3 0l3.69 1.69A2 2 0 0 1 61 17.28Z"></path><path fill="#57565c" d="M55 5a3 3 0 0 1 3 3v2l-2-2-1.41 1.41a2.006 2.006 0 0 1-1.42.59H52V8a3 3 0 0 1 3-3Z"></path><path fill="#ffc477" d="M58 10v1a2.993 2.993 0 0 1-5 2.23 1.2 1.2 0 0 1-.12-.11A2.993 2.993 0 0 1 52 11v-1h1.17a2.006 2.006 0 0 0 1.42-.59L56 8zM35 8v1a2.993 2.993 0 0 1-5 2.23 1.2 1.2 0 0 1-.12-.11A2.993 2.993 0 0 1 29 9V8h1.17a2.006 2.006 0 0 0 1.42-.59L33 6z"></path><path fill="#57565c" d="M29 8V6a3 3 0 0 1 6 0v2l-2-2-1.41 1.41a2.006 2.006 0 0 1-1.42.59Z"></path><path fill="#ff5023" d="M38 15.28V17H26v-1.72a2 2 0 0 1 1.16-1.82l3.69-1.69a2.99 2.99 0 0 0 2.3 0l3.69 1.69A2 2 0 0 1 38 15.28Z"></path><path fill="#00ccb3" d="M15 17.28V19H3v-1.72a2 2 0 0 1 1.16-1.82l3.69-1.69a2.99 2.99 0 0 0 2.3 0l3.69 1.69A2 2 0 0 1 15 17.28Z"></path><path fill="#ffc477" d="M7.85 13.77a2.921 2.921 0 0 1-.85-.54 1.2 1.2 0 0 1-.12-.11A2.993 2.993 0 0 1 6 11v-1h1.17a2.006 2.006 0 0 0 1.42-.59L10 8l2 2v1a3 3 0 0 1-4.15 2.77Z"></path><path fill="#57565c" d="M6 10V8a3 3 0 0 1 6 0v2l-2-2-1.41 1.41a2.006 2.006 0 0 1-1.42.59Z"></path><path fill="#ffa733" d="M53 27H43v-2h10a1 1 0 0 0 1-1v-2h2v2a3 3 0 0 1-3 3zm-32 0H11a3 3 0 0 1-3-3v-2h2v2a1 1 0 0 0 1 1h10zM31 20h2v6h-2zM45 52h-2a3 3 0 0 1 3-3h6a1 1 0 0 0 1-1v-1h2v1a3 3 0 0 1-3 3h-6a1 1 0 0 0-1 1zm-24 0h-2a1 1 0 0 0-1-1h-6a3 3 0 0 1-3-3v-1h2v1a1 1 0 0 0 1 1h6a3 3 0 0 1 3 3z"></path><path fill="#ee8700" d="M28 40h2v2h-2zM34 40h2v2h-2z"></path></g></svg>